<svg width="10" height="13" viewBox="0 0 10 13" fill="none" xmlns="http://www.w3.org/2000/svg">
<mask id="path-1-inside-1_0_32" fill="white">
<path d="M4.64258 9.28613C7.20652 9.28613 9.28576 10.117 9.28613 11.1426C9.28613 12.1683 7.20676 13 4.64258 13C2.07853 12.9999 0 12.1682 0 11.1426C0.000376996 10.1171 2.07876 9.28619 4.64258 9.28613ZM4.64258 0C7.20666 0 9.28598 2.07853 9.28613 4.64258C9.28613 7.20676 7.20676 9.28613 4.64258 9.28613C2.07853 9.28598 0 7.20666 0 4.64258C0.000150744 2.07862 2.07862 0.000150744 4.64258 0Z"/>
</mask>
<path d="M9.28613 11.1426H9.99613V11.1423L9.28613 11.1426ZM4.64258 13L4.64256 13.71H4.64258V13ZM0 11.1426L-0.71 11.1423V11.1426H0ZM4.64258 0V-0.71H4.64254L4.64258 0ZM9.28613 4.64258H9.99613V4.64254L9.28613 4.64258ZM0 4.64258L-0.71 4.64254V4.64258H0ZM4.64258 9.28613V9.99613C5.85739 9.99613 6.92471 10.1943 7.66216 10.4891C8.03285 10.6372 8.28523 10.7959 8.43332 10.9359C8.50526 11.0039 8.54203 11.0575 8.55971 11.092C8.57591 11.1236 8.57613 11.1387 8.57613 11.1428L9.28613 11.1426L9.99613 11.1423C9.99594 10.6277 9.7321 10.2095 9.40863 9.90382C9.08664 9.59954 8.65889 9.35824 8.18923 9.1705C7.24598 8.79345 5.99171 8.57613 4.64258 8.57613V9.28613ZM9.28613 11.1426H8.57613C8.57613 11.1467 8.57592 11.1618 8.55972 11.1934C8.54204 11.228 8.50529 11.2816 8.43336 11.3496C8.28529 11.4896 8.03293 11.6484 7.66224 11.7967C6.9248 12.0917 5.85744 12.29 4.64258 12.29V13V13.71C5.9919 13.71 7.24632 13.4925 8.18961 13.1151C8.65929 12.9273 9.08703 12.6858 9.40897 12.3814C9.73239 12.0756 9.99613 11.6572 9.99613 11.1426H9.28613ZM4.64258 13L4.64259 12.29C3.4278 12.29 2.3607 12.0916 1.62352 11.7967C1.25296 11.6484 1.00071 11.4896 0.85272 11.3497C0.780833 11.2817 0.744092 11.2281 0.726423 11.1935C0.710229 11.1619 0.71 11.1468 0.71 11.1426H0H-0.71C-0.71 11.6571 -0.446405 12.0755 -0.123054 12.3813C0.198803 12.6857 0.626445 12.9272 1.09602 13.1151C2.03912 13.4924 3.29331 13.71 4.64256 13.71L4.64258 13ZM0 11.1426L0.71 11.1428C0.710001 11.1387 0.710235 11.1236 0.726435 11.0919C0.744111 11.0574 0.780862 11.0038 0.85276 10.9358C1.00078 10.7959 1.25303 10.6372 1.6236 10.4891C2.36079 10.1943 3.42784 9.99616 4.64259 9.99613L4.64258 9.28613L4.64256 8.57613C3.2935 8.57616 2.03945 8.79349 1.0964 9.17056C0.626846 9.35831 0.199197 9.59962 -0.12271 9.90392C-0.446113 10.2096 -0.709811 10.6279 -0.71 11.1423L0 11.1426ZM4.64258 0V0.71C6.81469 0.71 8.576 2.47081 8.57613 4.64262L9.28613 4.64258L9.99613 4.64254C9.99596 1.68624 7.59863 -0.71 4.64258 -0.71V0ZM9.28613 4.64258H8.57613C8.57613 6.81464 6.81464 8.57613 4.64258 8.57613V9.28613V9.99613C7.59888 9.99613 9.99613 7.59888 9.99613 4.64258H9.28613ZM4.64258 9.28613L4.64262 8.57613C2.47081 8.576 0.71 6.81469 0.71 4.64258H0H-0.71C-0.71 7.59863 1.68624 9.99596 4.64254 9.99613L4.64258 9.28613ZM0 4.64258L0.71 4.64262C0.710128 2.47075 2.47075 0.710128 4.64262 0.71L4.64258 0L4.64254 -0.71C1.68649 -0.709826 -0.709826 1.68649 -0.71 4.64254L0 4.64258Z" fill="#292929" mask="url(#path-1-inside-1_0_32)"/>
</svg>
