<svg width="33" height="26" viewBox="0 0 33 26" fill="none" xmlns="http://www.w3.org/2000/svg">
<path d="M0.0975305 6.74179C0.146296 6.31103 0.170678 5.71366 0.170678 4.94967C0.170678 3.49484 0.113786 1.84495 0 0C1.58487 0.0487652 4.3076 0.0731479 8.16818 0.0731479C12.0125 0.0731479 14.723 0.0487652 16.2998 0C16.186 1.84495 16.1291 3.49484 16.1291 4.94967C16.1291 5.71366 16.1535 6.31103 16.2023 6.74179H15.6293C15.0847 4.55549 14.3776 2.98281 13.508 2.02376C12.6465 1.05658 11.7158 0.572992 10.7162 0.572992H10.6918V14.8612C10.6918 15.5602 10.7609 16.0681 10.899 16.3851C11.0453 16.7021 11.3054 16.9134 11.6793 17.0191C12.0531 17.1247 12.6465 17.1776 13.4592 17.1776V17.6774C11.1185 17.6286 9.29384 17.6043 7.98531 17.6043C6.80681 17.6043 5.09597 17.6286 2.85277 17.6774V17.1776C3.66552 17.1776 4.25883 17.1247 4.6327 17.0191C5.00656 16.9134 5.26258 16.7021 5.40075 16.3851C5.54705 16.0681 5.62019 15.5602 5.62019 14.8612V0.572992H5.59581C4.57987 0.572992 3.64114 1.05252 2.77962 2.01157C1.92623 2.96249 1.22319 4.53923 0.670522 6.74179H0.0975305Z" fill="white"/>
<path d="M16.7429 15.0644C16.7917 14.6337 16.8161 14.0363 16.8161 13.2723C16.8161 11.8175 16.7592 10.1676 16.6454 8.32265C18.2302 8.37141 20.953 8.3958 24.8136 8.3958C28.6579 8.3958 31.3684 8.37141 32.9452 8.32265C32.8314 10.1676 32.7745 11.8175 32.7745 13.2723C32.7745 14.0363 32.7989 14.6337 32.8476 15.0644H32.2746C31.7301 12.8781 31.023 11.3055 30.1533 10.3464C29.2918 9.37923 28.3612 8.89564 27.3615 8.89564H27.3372V23.1839C27.3372 23.8828 27.4062 24.3908 27.5444 24.7078C27.6907 25.0247 27.9508 25.2361 28.3247 25.3417C28.6985 25.4474 29.2918 25.5002 30.1046 25.5002V26C27.7639 25.9513 25.9392 25.9269 24.6307 25.9269C23.4522 25.9269 21.7413 25.9513 19.4981 26V25.5002C20.3109 25.5002 20.9042 25.4474 21.2781 25.3417C21.6519 25.2361 21.908 25.0247 22.0461 24.7078C22.1924 24.3908 22.2656 23.8828 22.2656 23.1839V8.89564H22.2412C21.2252 8.89564 20.2865 9.37516 19.425 10.3342C18.5716 11.2851 17.8686 12.8619 17.3159 15.0644H16.7429Z" fill="white"/>
</svg>
